name precision_landing11_filtered_grf.mot
datacolumns 37
datarows 11
range 0.002500 0.007500
endheader
time	1_ground_force_vx	1_ground_force_vy	1_ground_force_vz	1_ground_force_px	1_ground_force_py	1_ground_force_pz	1_ground_torque_x	1_ground_torque_y	1_ground_torque_z	2_ground_force_vx	2_ground_force_vy	2_ground_force_vz	2_ground_force_px	2_ground_force_py	2_ground_force_pz	2_ground_torque_x	2_ground_torque_y	2_ground_torque_z	3_ground_force_vx	3_ground_force_vy	3_ground_force_vz	3_ground_force_px	3_ground_force_py	3_ground_force_pz	3_ground_torque_x	3_ground_torque_y	3_ground_torque_z	4_ground_force_vx	4_ground_force_vy	4_ground_force_vz	4_ground_force_px	4_ground_force_py	4_ground_force_pz	4_ground_torque_x	4_ground_torque_y	4_ground_torque_z
            0.002500	           -0.000000	            0.000000	            0.000000	            0.083522	            0.000000	            0.166275	            0.000000	            0.000000	           -0.000000	            0.000000	            0.000000	            0.000000	           -0.190458	            0.000000	            0.249503	            0.000000	           -0.000000	            0.000000	          -45.849653	          322.275894	           95.656492	            0.381905	            1.274420	            1.866424	            2.156888	          -15.160705	           -4.499933	           41.803659	          260.802180	           94.015766	           -0.351572	            1.267705	            1.860138	            2.072114	           12.927381	            4.660151
            0.003000	           -0.000000	            0.000000	            0.000000	            0.083522	            0.000000	            0.166275	            0.000000	            0.000000	           -0.000000	            0.000000	            0.000000	            0.000000	           -0.190458	            0.000000	            0.249503	            0.000000	           -0.000000	            0.000000	          -45.632174	          322.337416	           95.729142	            0.381905	            1.274420	            1.866424	            2.149247	          -15.181892	           -4.508783	           41.785804	          260.395323	           93.979444	           -0.351572	            1.267705	            1.860138	            2.075105	           12.931366	            4.667068
            0.003500	           -0.000000	            0.000000	            0.000000	            0.083522	            0.000000	            0.166275	            0.000000	            0.000000	           -0.000000	            0.000000	            0.000000	            0.000000	           -0.190458	            0.000000	            0.249503	            0.000000	           -0.000000	            0.000000	          -45.425609	          322.402076	           95.795052	            0.381913	            1.274424	            1.866421	            2.141977	          -15.202390	           -4.517073	           41.765842	          259.993170	           93.941036	           -0.351566	            1.267711	            1.860136	            2.077846	           12.934632	            4.673556
            0.004000	           -0.000000	            0.000000	            0.000000	            0.083522	            0.000000	            0.166275	            0.000000	            0.000000	           -0.000000	            0.000000	            0.000000	            0.000000	           -0.190458	            0.000000	            0.249503	            0.000000	           -0.000000	            0.000000	          -45.230603	          322.469694	           95.853836	            0.381921	            1.274428	            1.866418	            2.135105	          -15.222144	           -4.524769	           41.743841	          259.596819	           93.900667	           -0.351559	            1.267716	            1.860135	            2.080330	           12.937168	            4.679598
            0.004500	           -0.000000	            0.000000	            0.000000	            0.083522	            0.000000	            0.166275	            0.000000	            0.000000	           -0.000000	            0.000000	            0.000000	            0.000000	           -0.190458	            0.000000	            0.249503	            0.000000	           -0.000000	            0.000000	          -45.047691	          322.540075	           95.905158	            0.381929	            1.274432	            1.866416	            2.128656	          -15.241108	           -4.531843	           41.719878	          259.207307	           93.858486	           -0.351553	            1.267722	            1.860133	            2.082550	           12.938969	            4.685177
            0.005000	           -0.000000	            0.000000	            0.000000	            0.083522	            0.000000	            0.166275	            0.000000	            0.000000	           -0.000000	            0.000000	            0.000000	            0.000000	           -0.190458	            0.000000	            0.249503	            0.000000	           -0.000000	            0.000000	          -44.877302	          322.613016	           95.948742	            0.381937	            1.274436	            1.866413	            2.122647	          -15.259242	           -4.538270	           41.694034	          258.825608	           93.814654	           -0.351547	            1.267727	            1.860131	            2.084501	           12.940037	            4.690282
            0.005500	           -0.000000	            0.000000	            0.000000	            0.083522	            0.000000	            0.166275	            0.000000	            0.000000	           -0.000000	            0.000000	            0.000000	            0.000000	           -0.190458	            0.000000	            0.249503	            0.000000	           -0.000000	            0.000000	          -44.720158	          322.687844	           95.985731	            0.381944	            1.274440	            1.866411	            2.117114	          -15.276491	           -4.544098	           41.665322	          258.452042	           93.771434	           -0.351541	            1.267732	            1.860130	            2.086127	           12.940347	            4.695010
            0.006000	           -0.000000	            0.000000	            0.000000	            0.083522	            0.000000	            0.166275	            0.000000	            0.000000	           -0.000000	            0.000000	            0.000000	            0.000000	           -0.190458	            0.000000	            0.249503	            0.000000	           -0.000000	            0.000000	          -44.575942	          322.764802	           96.014658	            0.381952	            1.274443	            1.866408	            2.112044	          -15.292854	           -4.549251	           41.634905	          258.088018	           93.726934	           -0.351535	            1.267738	            1.860128	            2.087479	           12.939941	            4.699253
            0.006500	           -0.000000	            0.000000	            0.000000	            0.083522	            0.000000	            0.166275	            0.000000	            0.000000	           -0.000000	            0.000000	            0.000000	            0.000000	           -0.190458	            0.000000	            0.249503	            0.000000	           -0.000000	            0.000000	          -44.444744	          322.843669	           96.035424	            0.381959	            1.274446	            1.866405	            2.107441	          -15.308314	           -4.553722	           41.602876	          257.734287	           93.681361	           -0.351530	            1.267743	            1.860127	            2.088557	           12.938835	            4.703013
            0.007000	           -0.000000	            0.000000	            0.000000	            0.083522	            0.000000	            0.166275	            0.000000	            0.000000	           -0.000000	            0.000000	            0.000000	            0.000000	           -0.190458	            0.000000	            0.249503	            0.000000	           -0.000000	            0.000000	          -44.326544	          322.924227	           96.047990	            0.381966	            1.274450	            1.866403	            2.103309	          -15.322862	           -4.557509	           41.569329	          257.391514	           93.634931	           -0.351524	            1.267748	            1.860125	            2.089364	           12.937050	            4.706293
            0.007500	           -0.000000	            0.000000	            0.000000	            0.083522	            0.000000	            0.166275	            0.000000	            0.000000	           -0.000000	            0.000000	            0.000000	            0.000000	           -0.190458	            0.000000	            0.249503	            0.000000	           -0.000000	            0.000000	          -44.221217	          323.006256	           96.052378	            0.381974	            1.274453	            1.866400	            2.099645	          -15.336496	           -4.560614	           41.534363	          257.060280	           93.587866	           -0.351518	            1.267753	            1.860123	            2.089903	           12.934614	            4.709101
